<?xml version="1.0" encoding="UTF-8"?>
<svg id="Layer_1" data-name="Layer 1" xmlns="http://www.w3.org/2000/svg" xmlns:xlink="http://www.w3.org/1999/xlink" viewBox="0 0 342.85 140.64">
  <defs>
    <style>
      .cls-1 {
        fill: url(#linear-gradient-2);
      }

      .cls-2 {
        fill: url(#linear-gradient-4);
      }

      .cls-3 {
        fill: url(#linear-gradient-3);
      }

      .cls-4 {
        fill: url(#linear-gradient-5);
      }

      .cls-5 {
        fill: #8223f5;
      }

      .cls-6 {
        fill: url(#linear-gradient-7);
      }

      .cls-7 {
        fill: url(#linear-gradient-6);
      }

      .cls-8 {
        fill: url(#linear-gradient);
      }
    </style>
    <linearGradient id="linear-gradient" x1="16.94" y1="88.36" x2="274.23" y2="37.76" gradientUnits="userSpaceOnUse">
      <stop offset="0" stop-color="#8d17f4"/>
      <stop offset=".56" stop-color="#584ff7"/>
      <stop offset=".87" stop-color="#2e9dfb"/>
      <stop offset="1" stop-color="#1adbf7"/>
    </linearGradient>
    <linearGradient id="linear-gradient-2" x1="22.71" y1="106.71" x2="273.05" y2="57.48" xlink:href="#linear-gradient"/>
    <linearGradient id="linear-gradient-3" x1="25.22" y1="113.72" x2="273.92" y2="64.82" xlink:href="#linear-gradient"/>
    <linearGradient id="linear-gradient-4" x1="14.69" y1="69.92" x2="267.6" y2="20.18" xlink:href="#linear-gradient"/>
    <linearGradient id="linear-gradient-5" x1="18.37" y1="99.63" x2="276.27" y2="48.92" xlink:href="#linear-gradient"/>
    <linearGradient id="linear-gradient-6" x1="5.63" y1="131.17" x2="282.04" y2="76.81" xlink:href="#linear-gradient"/>
    <linearGradient id="linear-gradient-7" x1="33.66" y1="66.65" x2="303.5" y2="60.03" xlink:href="#linear-gradient"/>
  </defs>
  <g>
    <g>
      <path class="cls-8" d="M101.46,55.21c.04-.16-.08-.32-.25-.32h-9.5c-.13,0-.24.08-.28.2-1.29,3.37-2.92,6.6-4.88,9.68-3.67,5.77-7.94,11.12-12.79,16.04-.99,1-2.97,3.18-4.49,4.49-1.19,1.03-2.33,2.05-3.43,3.07-2.18,2.02-4.45,3.88-6.8,5.59-.29.21-.72.04-.77-.32-1.66-10.6-4.39-21.59-8.58-31.52-.1-.22-.31-.36-.54-.36h-10.67c-.14,0-.23.15-.17.27,3.22,6.54,5.91,13.65,7.84,20.96,1.98,7.5,3.3,14.02,3.95,19.56.02.17.17.3.34.3h6.52c.12,0,.24-.04.34-.1,4.62-3.09,9.15-6.6,13.59-10.55,5.72-5.08,10.59-9.85,14.6-14.32.37-.41,1.9-2.17,4.59-5.27,4.18-4.83,7.66-9.86,10.44-15.08.48-.89.79-1.66.94-2.31Z"/>
      <path class="cls-1" d="M161.93,62.44c-2.34-.66-4.78-.84-7.31-.55-4.9.63-9.12,2.42-12.66,5.36-.96.8-1.93,1.63-2.91,2.48-.29.25-.49.3-.63.15-.03-.03-.04-.08-.03-.12l2.58-7.55c.08-.23-.09-.46-.33-.46h-9.01c-.19,0-.34.12-.4.29-5.45,17.1-10.07,31.03-12.82,39.33-.06.18-.13.58-.22,1.22-.03.18.11.33.28.33h9.19c.23,0,.44-.15.5-.38,1.48-5.33,3.41-10.65,5.06-16.06,1.78-5.83,5.18-12.13,10.71-15.16,3.49-1.9,7.67-2.89,11.65-1.9,2.13.6,3.49,1.87,4.07,3.82.54,1.81.16,4.61-.41,6.41-2.02,6.31-3.96,12.24-5.82,17.82-.72,2.17-1.22,3.78-1.48,4.81-.08.33.16.64.5.64h9.27c.12,0,.23-.08.27-.2,2.16-7.3,4.68-15.21,7.56-23.72,1.17-3.46,1.18-6.81.04-10.07-1.17-3.31-4.36-5.57-7.62-6.5Z"/>
      <path class="cls-3" d="M228.37,62.5c.14-.35-.11-.75-.48-.75h-8.28c-.4,0-.75.27-.86.66-.32,1.13-.74,2.23-1.27,3.29-3.11,6.23-7,12.08-11.65,17.54-1.94,2.26-4.72,4.92-7.32,7.61-.87.91-1.98,1.77-3.22,2.9-.32.3-.83.16-.99-.26-.05-.13-.09-.4-.14-.78-.82-7.27-2.16-14.57-4-21.92-.78-3.1-1.9-6.1-2.63-8.59-.06-.21-.25-.36-.47-.36h-10.31c-.38,0-.64.39-.51.75.03.08.07.18.13.3,2.4,5.01,4.18,9.85,5.35,14.53,1.94,7.78,3.36,14.81,4.27,21.11.2,1.36.32,2.55.36,3.59.01.34.28.61.61.63,1.64.07,3.31.12,5.02.15.99.02,1.76-.2,2.3-.65,4.2-3.48,8.57-6.96,12.46-10.92,3.8-3.87,6.84-7.2,9.14-10,1.68-2.04,3.09-3.54,4.45-5.52,2.26-3.3,4.18-5.87,6.04-9.27.97-1.77,1.63-3.11,1.99-4.04Z"/>
      <path class="cls-2" d="M118.28,54.58c1.77-.17,2.33-1.3,2.8-2.92.34-1.2.65-2.38.93-3.54.92-3.83-3.96-3.18-6.49-3.02-3.89.25-4.62,3.46-5.45,6.59-1.13,4.28,5.77,3.12,8.21,2.9Z"/>
      <path class="cls-4" d="M117.79,61.75h-9.74c-.16,0-.3.1-.35.25l-13.15,40.43c-.08.24.1.48.35.48h9.74c.16,0,.3-.1.35-.25l13.15-40.43c.08-.24-.1-.48-.35-.48Z"/>
      <path class="cls-7" d="M276.4,67.92c-1.36-1.57-2.34-2.55-2.95-2.93-1.49-.94-2.92-1.59-4.3-1.97-6.97-1.89-13.36-1.55-20.62.21-3.52.93-6.35,1.99-8.49,3.19-2.93,1.64-5.77,4.05-8.51,7.25-1.15,1.35-2.08,2.73-2.78,4.15-.87,1.74-1.49,3.26-1.86,4.54-1.04,3.58-1.12,8.51.8,11.82,5.25,9.04,17.78,9.63,27.87,8.05,6.18-.97,12.66-3.86,16.73-8.33.23-.25.21-.61-.05-.84l-2.34-2.06c-.31-.26-.79-.26-1.09,0-1.08.99-2.23,1.78-3.42,2.34-5.66,2.68-11.77,3.67-18.33,2.95-2.54-.28-4.73-1.13-6.57-2.56-2.27-1.77-3.33-5.04-2.81-7.64.06-.3.36-.52.7-.51,4.69.07,9.31.13,13.85.18,1.86.02,5.16-.14,9.92-.48,4.15-.13,9.85-.63,13.08-3.09,3.81-2.91,4.17-10.85,1.18-14.28ZM262.2,80.19c-.54.05-1.65.1-3.36.15l-18.96.02c-.32,0-.57-.24-.55-.52.02-.36.12-.74.29-1.13,2.33-5.41,6.68-8.91,13.06-10.49,1.37-.34,3.39-.51,6.08-.5,4.17.31,7.43,2.28,7.78,6.03.26,2.72-.7,6.1-4.34,6.44Z"/>
    </g>
    <path class="cls-6" d="M293.92,54.89l-5.39,17.23-10.59,30.22c-.08.28.12.56.41.56h9.27c.43,0,.82-.29.95-.7l7.93-21.28s0,0,0,0c.25-.41.38-.88.38-1.41,0-.12.03-.24.07-.36l1.09-2.85c1.25-3.9,2.49-7.82,3.72-11.76,1.08-3.44,1.59-5.82,1.55-7.13-.1-3.2-1.23-6.02-3.37-8.47-1.08-1.23-2.2-2.13-3.35-2.71-2.89-1.43-4.8-2.47-7.51-3.49-2.32-.88-4.64-1.74-6.97-2.59l-8.14-2.62-15.55-4.97c-8.47-2.42-14.37-3.98-17.72-4.71-4.18-.91-8.36-1.84-12.53-2.8-1.88-.43-5.61-1.07-11.18-1.91-2.33-.22-4.68-.48-7.06-.78-3.22-.41-5.57-.69-7.05-.83-3.72-.37-6.26-.59-7.61-.67-3.83-.23-8.82-.33-14.96-.29-4.98.04-9.95.39-14.91,1.05-4.98.67-10.13,1.47-15.46,2.41-2,.35-3.67.71-5.01,1.06-2.59.69-4.25,1.11-4.98,1.25-2,.38-3.67,1.42-5.76,1.92-1.87.44-3.76,1.07-5.67,1.91-2.37,1.04-4.86,1.94-6.81,2.56-1.33.41-3.01,1.09-5.05,2.05-6.75,3.15-13.18,6.45-19.3,9.91-.85.48-1.77.7-2.76.68-8.55-.21-17.09.17-25.62,1.13-1.72.19-3.14.74-4.65.87-1.17.1-2.34.29-3.5.57-3.4.81-5.55,1.32-6.46,1.55-2.18.54-4.73,1.75-6.79,2.1-.2.03-.37.11-.54.22-.3.19-.87.44-1.72.75-4.11,1.51-7.8,3.41-11.07,5.69,0,0,0,.02,0,.02,0,0,.02,0,.02,0,0,0,.04-.01.08-.04,4.34-2.24,7.91-3.86,10.72-4.85.18-.06.59-.16,1.22-.3.15-.03.29-.08.43-.14,2.25-.98,4.16-1.55,5.73-1.7.24-.02.65-.13,1.24-.33,1.83-.61,3.15-1,3.95-1.17,3.84-.83,7.56-1.45,11.16-1.84,5.77-.63,11.5-1.1,17.42-1.07.14,0,3.06-.08,8.77-.24.79-.02,1.55-.24,2.24-.63,3.32-1.9,6.96-3.73,10.93-5.49,2.14-.95,4.14-1.6,6.31-2.82l.18-.08,13.1-4.56.09-.02c.76-.1,1.96-.41,3.6-.93,1.3-.41,3.83-1.01,7.56-1.8.65-.14,1.41-.32,2.28-.55,2.51-.66,4.83-.92,8.07-1.52,1.82-.34,3.75-.63,5.79-.86,16.4-1.89,33.18-1.46,50.35,1.27,5.42.87,9.68,1.64,12.77,2.32,3.8,1.02,7.85,1.9,11.43,2.91,8.84,2.52,14.64,4.24,17.4,5.17,3.32,1.13,6.65,2.23,9.99,3.29l18.01,5.25,7.5,2.5c.41.14.81.29,1.2.46l10.1,4.37Z"/>
  </g>
  <g>
    <path class="cls-5" d="M185.71,114.7l-.06.13-1.13,2.76h-.67l3.32-7.82,3.32,7.82h-.67l-1.12-2.72-.05-.14-1.48-3.59-1.46,3.56ZM185.46,114.5h3.47l.19.56h-3.86l.19-.56Z"/>
    <path class="cls-5" d="M195.19,113.2h1.17c.29,0,.56-.05.81-.14.24-.09.44-.23.58-.42.14-.19.21-.43.21-.73,0-.42-.15-.74-.44-.97s-.68-.35-1.17-.35h-1.04v6.47h1.15c.38,0,.71-.06,1-.19.29-.13.51-.32.67-.56.16-.25.24-.56.24-.93,0-.26-.05-.5-.15-.7-.1-.2-.24-.38-.42-.52-.18-.14-.38-.25-.61-.32-.23-.07-.47-.11-.73-.11h-1.28v-.34h1.32c.31,0,.61.04.9.12.29.08.56.21.79.37.23.17.42.37.56.63.14.25.21.55.21.9,0,.49-.11.9-.32,1.23s-.51.56-.89.72-.81.24-1.3.24h-1.74v-7.53h1.63c.45,0,.84.07,1.17.2.33.14.58.34.76.61.18.27.27.6.27,1.01,0,.37-.09.67-.27.92s-.44.43-.76.56c-.32.13-.7.19-1.12.19h-1.21v-.34Z"/>
    <path class="cls-5" d="M201.08,117.36c-.34-.22-.61-.53-.81-.92-.2-.39-.3-.84-.3-1.34s.1-.95.3-1.33c.2-.39.48-.69.84-.91.36-.22.77-.33,1.24-.33s.85.1,1.19.31c.34.21.61.5.8.87.19.37.28.79.28,1.27,0,.04,0,.09,0,.14,0,.05,0,.09-.02.13h-4.27v-.48h3.85l-.24.33s.03-.08.05-.15c.02-.06.03-.12.03-.18,0-.34-.07-.64-.22-.9-.15-.26-.35-.47-.6-.62-.25-.15-.53-.23-.85-.23-.37,0-.68.08-.95.25-.27.17-.48.4-.63.71-.15.3-.23.66-.23,1.08s.07.79.22,1.11c.15.32.35.56.62.73.27.17.58.26.94.26.38,0,.71-.08.99-.25.28-.17.54-.42.76-.77l.45.29c-.28.43-.6.75-.97.95s-.8.31-1.3.31c-.44,0-.84-.11-1.18-.33Z"/>
    <path class="cls-5" d="M205.77,113.73c.22-.38.5-.68.87-.89.36-.21.76-.31,1.2-.31s.8.11,1.11.34.55.53.73.92c.18.39.26.83.26,1.32s-.09.93-.26,1.32c-.18.39-.42.7-.73.92-.31.23-.68.34-1.11.34s-.84-.1-1.2-.31c-.36-.21-.65-.51-.87-.89-.21-.39-.32-.85-.32-1.38s.11-1,.32-1.38ZM206.14,117.91c0,.31.07.58.21.83.14.24.35.44.61.58.26.14.56.22.91.22.31,0,.6-.07.87-.22.27-.14.5-.37.67-.67s.26-.69.26-1.17v-4.84h.56v4.84c0,.57-.11,1.04-.33,1.42-.22.38-.51.67-.87.87-.36.19-.75.29-1.16.29-.45,0-.85-.09-1.2-.27-.35-.18-.62-.43-.81-.76-.19-.33-.29-.7-.29-1.12h.57ZM206.27,116.22c.17.31.4.54.69.7.29.16.61.24.95.24.31,0,.6-.09.87-.27.27-.18.49-.42.65-.74.16-.31.25-.67.25-1.07,0-.29-.05-.55-.14-.8-.09-.24-.22-.46-.39-.64-.17-.19-.36-.33-.57-.44s-.43-.16-.66-.16c-.34,0-.66.08-.95.24-.29.16-.52.4-.69.7s-.25.68-.25,1.11.08.8.25,1.11Z"/>
    <path class="cls-5" d="M212,110.12c.08-.08.17-.11.28-.11.11,0,.21.04.28.11.08.08.11.17.11.28,0,.11-.04.2-.11.28-.08.08-.17.12-.28.12-.11,0-.2-.04-.28-.12-.08-.08-.12-.17-.12-.28,0-.11.04-.21.12-.28ZM212.56,112.64v4.95h-.56v-4.95h.56Z"/>
    <path class="cls-5" d="M217.27,113.42c-.19-.24-.48-.35-.88-.35-.28,0-.53.07-.75.2-.22.13-.39.31-.52.54-.13.23-.19.49-.19.77v3.01h-.56v-4.95h.56v1.03c.14-.36.34-.64.62-.84s.6-.3.96-.3c.52,0,.91.16,1.18.49.27.33.41.77.41,1.32v3.25h-.56v-3.18c0-.42-.09-.75-.28-.99Z"/>
    <path class="cls-5" d="M222.7,113.42c-.19-.24-.48-.35-.88-.35-.28,0-.53.07-.75.2-.22.13-.39.31-.52.54-.13.23-.19.49-.19.77v3.01h-.56v-4.95h.56v1.03c.14-.36.34-.64.62-.84s.6-.3.96-.3c.52,0,.91.16,1.18.49.27.33.41.77.41,1.32v3.25h-.56v-3.18c0-.42-.09-.75-.28-.99Z"/>
    <path class="cls-5" d="M225.35,110.12c.08-.08.17-.11.28-.11.11,0,.21.04.28.11.08.08.11.17.11.28,0,.11-.04.2-.11.28-.08.08-.17.12-.28.12-.11,0-.2-.04-.28-.12-.08-.08-.12-.17-.12-.28,0-.11.04-.21.12-.28ZM225.91,112.64v4.95h-.56v-4.95h.56Z"/>
    <path class="cls-5" d="M230.62,113.42c-.19-.24-.48-.35-.88-.35-.28,0-.53.07-.75.2-.22.13-.39.31-.52.54-.13.23-.19.49-.19.77v3.01h-.56v-4.95h.56v1.03c.14-.36.34-.64.62-.84s.6-.3.96-.3c.52,0,.91.16,1.18.49.27.33.41.77.41,1.32v3.25h-.56v-3.18c0-.42-.09-.75-.28-.99Z"/>
    <path class="cls-5" d="M233.05,113.73c.22-.38.5-.68.87-.89.36-.21.76-.31,1.2-.31s.8.11,1.11.34.55.53.73.92c.18.39.26.83.26,1.32s-.09.93-.26,1.32c-.18.39-.42.7-.73.92-.31.23-.68.34-1.11.34s-.84-.1-1.2-.31c-.36-.21-.65-.51-.87-.89-.21-.39-.32-.85-.32-1.38s.11-1,.32-1.38ZM233.41,117.91c0,.31.07.58.21.83.14.24.35.44.61.58.26.14.56.22.91.22.31,0,.6-.07.87-.22.27-.14.5-.37.67-.67s.26-.69.26-1.17v-4.84h.56v4.84c0,.57-.11,1.04-.33,1.42-.22.38-.51.67-.87.87-.36.19-.75.29-1.16.29-.45,0-.85-.09-1.2-.27-.35-.18-.62-.43-.81-.76-.19-.33-.29-.7-.29-1.12h.57ZM233.55,116.22c.17.31.4.54.69.7.29.16.61.24.95.24.31,0,.6-.09.87-.27.27-.18.49-.42.65-.74.16-.31.25-.67.25-1.07,0-.29-.05-.55-.14-.8-.09-.24-.22-.46-.39-.64-.17-.19-.36-.33-.57-.44s-.43-.16-.66-.16c-.34,0-.66.08-.95.24-.29.16-.52.4-.69.7s-.25.68-.25,1.11.08.8.25,1.11Z"/>
    <path class="cls-5" d="M240.57,116.69l-1.18,2.69-.4-.14,1.02-2.76.56.21Z"/>
    <path class="cls-5" d="M246.66,114.7l-.06.13-1.13,2.76h-.67l3.32-7.82,3.32,7.82h-.67l-1.12-2.72-.05-.14-1.48-3.59-1.46,3.56ZM246.4,114.5h3.47l.19.56h-3.86l.19-.56Z"/>
    <path class="cls-5" d="M260.84,110.06h.67l-3.32,7.82-3.32-7.82h.67l2.66,6.44,2.66-6.44Z"/>
    <path class="cls-5" d="M262.57,110.12c.08-.08.17-.11.28-.11.11,0,.21.04.28.11.08.08.11.17.11.28,0,.11-.04.2-.11.28-.08.08-.17.12-.28.12-.11,0-.2-.04-.28-.12-.08-.08-.12-.17-.12-.28,0-.11.04-.21.12-.28ZM263.13,112.64v4.95h-.56v-4.95h.56Z"/>
    <path class="cls-5" d="M265.29,116.18c.17.31.41.55.7.73.3.18.63.26,1.01.26.26,0,.51-.04.74-.12.23-.08.43-.18.6-.31.17-.13.29-.25.36-.38v.7c-.15.18-.38.33-.69.45-.31.12-.65.18-1.01.18-.48,0-.91-.11-1.29-.33-.38-.22-.68-.53-.91-.92-.23-.39-.34-.83-.34-1.33s.11-.95.34-1.33c.23-.39.53-.69.91-.91.38-.22.81-.33,1.29-.33.36,0,.69.06,1.01.19.31.13.54.27.69.45v.7c-.07-.14-.19-.26-.36-.39-.17-.12-.37-.22-.6-.3-.23-.08-.48-.12-.74-.12-.37,0-.71.09-1.01.26-.3.18-.53.42-.7.73-.17.31-.26.66-.26,1.06s.09.76.26,1.06Z"/>
    <path class="cls-5" d="M271.55,112.64v.53h-2.17v-.53h2.17ZM270.74,110.92v6.67h-.56v-6.67h.56Z"/>
    <path class="cls-5" d="M272.4,113.78c.22-.39.52-.69.91-.91.38-.22.82-.33,1.3-.33s.91.11,1.3.33c.38.22.69.53.91.91.22.39.33.83.33,1.33s-.11.94-.33,1.33c-.22.39-.53.7-.91.92-.38.22-.82.33-1.3.33s-.91-.11-1.3-.33c-.38-.22-.69-.53-.91-.92-.22-.39-.33-.83-.33-1.33s.11-.95.33-1.33ZM272.89,116.18c.17.31.41.55.7.73.3.18.63.26,1.01.26s.71-.09,1.01-.26c.3-.18.53-.42.7-.73.17-.31.26-.66.26-1.06s-.09-.75-.26-1.06c-.17-.31-.41-.56-.7-.73-.3-.18-.63-.26-1.01-.26s-.71.09-1.01.26c-.3.17-.53.41-.7.73-.17.31-.26.67-.26,1.07s.09.76.26,1.06Z"/>
    <path class="cls-5" d="M278.96,117.59h-.56v-4.95h.56v4.95ZM280.3,113.12c-.1-.04-.21-.06-.34-.06-.24,0-.44.07-.59.2-.15.14-.25.32-.32.55-.06.23-.1.48-.1.76h-.26c0-.39.06-.74.18-1.05.12-.3.29-.55.5-.73.21-.18.45-.27.7-.27.16,0,.31.02.45.07.14.05.27.12.38.23l-.31.46c-.11-.08-.21-.14-.31-.18Z"/>
    <path class="cls-5" d="M282.74,119.95h-.62l1.27-2.87-2-4.44h.67l1.8,4.21-.26-.02,1.75-4.19h.62l-3.23,7.31Z"/>
  </g>
  <path class="cls-5" d="M301.95,43.22c.18-.42.42-.79.73-1.09.31-.31.67-.55,1.09-.72.42-.17.87-.25,1.36-.25s.94.08,1.36.25c.42.17.78.41,1.09.72.31.31.55.67.73,1.09.18.42.26.88.26,1.38s-.09.96-.26,1.38c-.18.42-.42.79-.73,1.09-.31.31-.67.55-1.09.72-.42.17-.87.25-1.36.25s-.94-.08-1.36-.25c-.42-.17-.79-.41-1.09-.72-.31-.31-.55-.67-.73-1.09-.18-.42-.26-.88-.26-1.38s.09-.96.26-1.38ZM302.27,45.84c.16.38.38.71.66.99.28.28.61.5.98.65.37.15.78.23,1.21.23s.84-.08,1.21-.23c.37-.15.7-.37.98-.65.28-.28.5-.61.66-.99.16-.38.23-.8.23-1.25s-.08-.87-.23-1.25-.38-.71-.66-.99c-.28-.28-.61-.5-.98-.65-.37-.15-.78-.23-1.21-.23s-.84.08-1.21.23c-.37.15-.7.37-.98.65-.28.28-.5.61-.66.99-.16.38-.23.79-.23,1.25s.08.87.23,1.25ZM304.34,42.49v4.01h-.32v-4.01h.32ZM304.19,42.49h.75c.39,0,.71.1.98.31.26.2.39.49.39.86s-.13.66-.39.86c-.26.2-.59.31-.98.31h-.75v-.28h.75c.31,0,.57-.08.76-.23.19-.15.29-.37.29-.66s-.1-.51-.29-.66c-.19-.15-.45-.22-.76-.22h-.75v-.29ZM305.06,44.59l1.37,1.91h-.39l-1.34-1.91h.36Z"/>
</svg>